<mxfile host="app.diagrams.net" agent="Mozilla/5.0 (X11; Linux x86_64) AppleWebKit/537.36 (KHTML, like Gecko) Chrome/135.0.0.0 Safari/537.36" version="26.2.14" pages="2">
  <diagram name="Page-1" id="-oPkY-i4LDvf2eIlePz5">
    <mxGraphModel dx="1678" dy="895" grid="1" gridSize="10" guides="1" tooltips="1" connect="1" arrows="1" fold="1" page="1" pageScale="1" pageWidth="827" pageHeight="1169" math="0" shadow="0">
      <root>
        <mxCell id="0" />
        <mxCell id="1" parent="0" />
        <mxCell id="0ioCVeAEq8ML-g6uwiBZ-2" value="Frontend" style="swimlane;whiteSpace=wrap;html=1;fillColor=#f8cecc;strokeColor=#b85450;" vertex="1" parent="1">
          <mxGeometry x="200" y="120" width="490" height="210" as="geometry" />
        </mxCell>
        <mxCell id="0ioCVeAEq8ML-g6uwiBZ-6" value="PASO 1" style="swimlane;whiteSpace=wrap;html=1;fillColor=#e1d5e7;strokeColor=#9673a6;" vertex="1" parent="0ioCVeAEq8ML-g6uwiBZ-2">
          <mxGeometry x="14" y="30" width="226" height="170" as="geometry" />
        </mxCell>
        <mxCell id="0ioCVeAEq8ML-g6uwiBZ-7" value="" style="rounded=0;whiteSpace=wrap;html=1;fillColor=#dae8fc;strokeColor=#6c8ebf;" vertex="1" parent="0ioCVeAEq8ML-g6uwiBZ-6">
          <mxGeometry x="11" y="30" width="204" height="130" as="geometry" />
        </mxCell>
        <mxCell id="0ioCVeAEq8ML-g6uwiBZ-8" value="Usuario" style="rounded=0;whiteSpace=wrap;html=1;align=left;fillColor=#f5f5f5;fontColor=#333333;strokeColor=#666666;" vertex="1" parent="0ioCVeAEq8ML-g6uwiBZ-6">
          <mxGeometry x="21" y="40" width="184" height="30" as="geometry" />
        </mxCell>
        <mxCell id="0ioCVeAEq8ML-g6uwiBZ-9" value="Contraseña" style="rounded=0;whiteSpace=wrap;html=1;align=left;fillColor=#f5f5f5;fontColor=#333333;strokeColor=#666666;" vertex="1" parent="0ioCVeAEq8ML-g6uwiBZ-6">
          <mxGeometry x="21" y="80" width="184" height="30" as="geometry" />
        </mxCell>
        <mxCell id="0ioCVeAEq8ML-g6uwiBZ-10" value="Iniciar sesión" style="rounded=0;whiteSpace=wrap;html=1;align=center;fillColor=#fff2cc;strokeColor=#d6b656;" vertex="1" parent="0ioCVeAEq8ML-g6uwiBZ-6">
          <mxGeometry x="115" y="120" width="90" height="30" as="geometry" />
        </mxCell>
        <mxCell id="0ioCVeAEq8ML-g6uwiBZ-11" value="PASO 1" style="swimlane;whiteSpace=wrap;html=1;fillColor=#e1d5e7;strokeColor=#9673a6;" vertex="1" parent="0ioCVeAEq8ML-g6uwiBZ-2">
          <mxGeometry x="254" y="30" width="226" height="170" as="geometry" />
        </mxCell>
        <mxCell id="0ioCVeAEq8ML-g6uwiBZ-12" value="Credenciales correctas&lt;div&gt;&lt;br&gt;&lt;div&gt;&lt;b&gt;&lt;font style=&quot;font-size: 15px;&quot;&gt;Sesión iniciada&lt;/font&gt;&lt;/b&gt;&lt;/div&gt;&lt;/div&gt;" style="rounded=0;whiteSpace=wrap;html=1;fillColor=#dae8fc;strokeColor=#6c8ebf;" vertex="1" parent="0ioCVeAEq8ML-g6uwiBZ-11">
          <mxGeometry x="11" y="30" width="204" height="130" as="geometry" />
        </mxCell>
        <mxCell id="0ioCVeAEq8ML-g6uwiBZ-16" value="Backend" style="swimlane;whiteSpace=wrap;html=1;fillColor=#d5e8d4;strokeColor=#82b366;" vertex="1" parent="1">
          <mxGeometry x="200" y="370" width="490" height="500" as="geometry" />
        </mxCell>
        <mxCell id="0ioCVeAEq8ML-g6uwiBZ-24" value="Capa lógica" style="swimlane;whiteSpace=wrap;html=1;fillColor=#dae8fc;strokeColor=#6c8ebf;" vertex="1" parent="0ioCVeAEq8ML-g6uwiBZ-16">
          <mxGeometry x="14" y="30" width="466" height="170" as="geometry" />
        </mxCell>
        <mxCell id="0ioCVeAEq8ML-g6uwiBZ-25" value="PASO 2" style="swimlane;whiteSpace=wrap;html=1;fillColor=#e1d5e7;strokeColor=#9673a6;" vertex="1" parent="0ioCVeAEq8ML-g6uwiBZ-24">
          <mxGeometry x="11" y="30" width="209" height="130" as="geometry" />
        </mxCell>
        <mxCell id="0ioCVeAEq8ML-g6uwiBZ-27" value="Transformación de los datos enviados al formato correcto y envío a la base de datos a través de una &lt;i&gt;query SQL.&lt;/i&gt;" style="rounded=0;whiteSpace=wrap;html=1;" vertex="1" parent="0ioCVeAEq8ML-g6uwiBZ-25">
          <mxGeometry x="10" y="30" width="190" height="90" as="geometry" />
        </mxCell>
        <mxCell id="0ioCVeAEq8ML-g6uwiBZ-37" value="PASO 4" style="swimlane;whiteSpace=wrap;html=1;fillColor=#e1d5e7;strokeColor=#9673a6;" vertex="1" parent="0ioCVeAEq8ML-g6uwiBZ-24">
          <mxGeometry x="240" y="30" width="213" height="130" as="geometry" />
        </mxCell>
        <mxCell id="0ioCVeAEq8ML-g6uwiBZ-38" value="Autentificación de los datos y envío de una respuesta de credenciales correctas." style="rounded=0;whiteSpace=wrap;html=1;" vertex="1" parent="0ioCVeAEq8ML-g6uwiBZ-37">
          <mxGeometry x="10" y="30" width="190" height="90" as="geometry" />
        </mxCell>
        <mxCell id="0ioCVeAEq8ML-g6uwiBZ-28" value="Las credenciales&lt;div&gt;son correctas?&lt;/div&gt;" style="rhombus;whiteSpace=wrap;html=1;fillColor=#bac8d3;strokeColor=#23445d;" vertex="1" parent="0ioCVeAEq8ML-g6uwiBZ-16">
          <mxGeometry x="80" y="210" width="100" height="100" as="geometry" />
        </mxCell>
        <mxCell id="0ioCVeAEq8ML-g6uwiBZ-29" value="Capa de datos" style="swimlane;whiteSpace=wrap;html=1;fillColor=#fff2cc;strokeColor=#d6b656;" vertex="1" parent="0ioCVeAEq8ML-g6uwiBZ-16">
          <mxGeometry x="12" y="320" width="466" height="170" as="geometry" />
        </mxCell>
        <mxCell id="0ioCVeAEq8ML-g6uwiBZ-30" value="PASO 3" style="swimlane;whiteSpace=wrap;html=1;fillColor=#e1d5e7;strokeColor=#9673a6;" vertex="1" parent="0ioCVeAEq8ML-g6uwiBZ-29">
          <mxGeometry x="15.5" y="30" width="439" height="130" as="geometry" />
        </mxCell>
        <mxCell id="0ioCVeAEq8ML-g6uwiBZ-31" value="Comprovación de que las credenciales facilitadas por el cliente sean coincidentes con las de la base de datos." style="rounded=0;whiteSpace=wrap;html=1;" vertex="1" parent="0ioCVeAEq8ML-g6uwiBZ-30">
          <mxGeometry x="10" y="30" width="320" height="90" as="geometry" />
        </mxCell>
        <mxCell id="0ioCVeAEq8ML-g6uwiBZ-35" value="" style="html=1;verticalLabelPosition=bottom;align=center;labelBackgroundColor=#ffffff;verticalAlign=top;strokeWidth=2;strokeColor=#0080F0;shadow=0;dashed=0;shape=mxgraph.ios7.icons.data;" vertex="1" parent="0ioCVeAEq8ML-g6uwiBZ-30">
          <mxGeometry x="352.5" y="40" width="70" height="70" as="geometry" />
        </mxCell>
        <mxCell id="0ioCVeAEq8ML-g6uwiBZ-36" value="Credenciales&lt;div&gt;correctas&lt;/div&gt;" style="shape=parallelogram;perimeter=parallelogramPerimeter;whiteSpace=wrap;html=1;fixedSize=1;fillColor=#bac8d3;strokeColor=#23445d;" vertex="1" parent="0ioCVeAEq8ML-g6uwiBZ-16">
          <mxGeometry x="310" y="230" width="120" height="60" as="geometry" />
        </mxCell>
        <mxCell id="0ioCVeAEq8ML-g6uwiBZ-43" style="edgeStyle=orthogonalEdgeStyle;rounded=0;orthogonalLoop=1;jettySize=auto;html=1;entryX=0.5;entryY=0;entryDx=0;entryDy=0;" edge="1" parent="0ioCVeAEq8ML-g6uwiBZ-16" source="0ioCVeAEq8ML-g6uwiBZ-25" target="0ioCVeAEq8ML-g6uwiBZ-28">
          <mxGeometry relative="1" as="geometry" />
        </mxCell>
        <mxCell id="0ioCVeAEq8ML-g6uwiBZ-44" style="edgeStyle=orthogonalEdgeStyle;rounded=0;orthogonalLoop=1;jettySize=auto;html=1;entryX=0.233;entryY=0.003;entryDx=0;entryDy=0;entryPerimeter=0;" edge="1" parent="0ioCVeAEq8ML-g6uwiBZ-16" source="0ioCVeAEq8ML-g6uwiBZ-28" target="0ioCVeAEq8ML-g6uwiBZ-30">
          <mxGeometry relative="1" as="geometry" />
        </mxCell>
        <mxCell id="0ioCVeAEq8ML-g6uwiBZ-45" style="edgeStyle=orthogonalEdgeStyle;rounded=0;orthogonalLoop=1;jettySize=auto;html=1;startArrow=classic;startFill=1;endArrow=none;" edge="1" parent="0ioCVeAEq8ML-g6uwiBZ-16" source="0ioCVeAEq8ML-g6uwiBZ-36">
          <mxGeometry relative="1" as="geometry">
            <mxPoint x="370" y="350" as="targetPoint" />
          </mxGeometry>
        </mxCell>
        <mxCell id="0ioCVeAEq8ML-g6uwiBZ-46" style="edgeStyle=orthogonalEdgeStyle;rounded=0;orthogonalLoop=1;jettySize=auto;html=1;" edge="1" parent="0ioCVeAEq8ML-g6uwiBZ-16" source="0ioCVeAEq8ML-g6uwiBZ-36">
          <mxGeometry relative="1" as="geometry">
            <mxPoint x="370" y="180" as="targetPoint" />
          </mxGeometry>
        </mxCell>
        <mxCell id="0ioCVeAEq8ML-g6uwiBZ-41" style="edgeStyle=orthogonalEdgeStyle;rounded=0;orthogonalLoop=1;jettySize=auto;html=1;startArrow=classic;startFill=1;endArrow=none;" edge="1" parent="1" source="0ioCVeAEq8ML-g6uwiBZ-25">
          <mxGeometry relative="1" as="geometry">
            <mxPoint x="330" y="320" as="targetPoint" />
            <Array as="points">
              <mxPoint x="331" y="360" />
              <mxPoint x="330" y="360" />
            </Array>
          </mxGeometry>
        </mxCell>
        <mxCell id="0ioCVeAEq8ML-g6uwiBZ-42" value="&lt;b&gt;&lt;font style=&quot;font-size: 14px;&quot;&gt;API&lt;/font&gt;&lt;/b&gt;" style="edgeLabel;html=1;align=center;verticalAlign=middle;resizable=0;points=[];" vertex="1" connectable="0" parent="0ioCVeAEq8ML-g6uwiBZ-41">
          <mxGeometry x="0.3667" y="-3" relative="1" as="geometry">
            <mxPoint x="-4" as="offset" />
          </mxGeometry>
        </mxCell>
        <mxCell id="0ioCVeAEq8ML-g6uwiBZ-48" value="" style="endArrow=classic;html=1;rounded=0;exitX=0.5;exitY=0;exitDx=0;exitDy=0;entryX=0.466;entryY=0.994;entryDx=0;entryDy=0;entryPerimeter=0;" edge="1" parent="1" source="0ioCVeAEq8ML-g6uwiBZ-37" target="0ioCVeAEq8ML-g6uwiBZ-12">
          <mxGeometry width="50" height="50" relative="1" as="geometry">
            <mxPoint x="560" y="390" as="sourcePoint" />
            <mxPoint x="610" y="340" as="targetPoint" />
          </mxGeometry>
        </mxCell>
        <mxCell id="0ioCVeAEq8ML-g6uwiBZ-49" value="&lt;b&gt;&lt;font style=&quot;font-size: 14px;&quot;&gt;API&lt;/font&gt;&lt;/b&gt;" style="edgeLabel;html=1;align=center;verticalAlign=middle;resizable=0;points=[];" vertex="1" connectable="0" parent="1">
          <mxGeometry x="560.0049609987125" y="354.9992885325969" as="geometry" />
        </mxCell>
      </root>
    </mxGraphModel>
  </diagram>
  <diagram id="Xk_AavlngW_-rmQK8yXw" name="Page-2">
    <mxGraphModel dx="1426" dy="761" grid="1" gridSize="10" guides="1" tooltips="1" connect="1" arrows="1" fold="1" page="1" pageScale="1" pageWidth="827" pageHeight="1169" math="0" shadow="0">
      <root>
        <mxCell id="0" />
        <mxCell id="1" parent="0" />
        <mxCell id="zPCV15eDfuU0EhWN9ZiQ-1" value="Frontend" style="swimlane;whiteSpace=wrap;html=1;fillColor=#f8cecc;strokeColor=#b85450;" vertex="1" parent="1">
          <mxGeometry x="80" y="80" width="250" height="390" as="geometry" />
        </mxCell>
        <mxCell id="zPCV15eDfuU0EhWN9ZiQ-2" value="PASO 1" style="swimlane;whiteSpace=wrap;html=1;fillColor=#e1d5e7;strokeColor=#9673a6;" vertex="1" parent="zPCV15eDfuU0EhWN9ZiQ-1">
          <mxGeometry x="12" y="30" width="226" height="170" as="geometry" />
        </mxCell>
        <mxCell id="zPCV15eDfuU0EhWN9ZiQ-3" value="" style="rounded=0;whiteSpace=wrap;html=1;fillColor=#dae8fc;strokeColor=#6c8ebf;" vertex="1" parent="zPCV15eDfuU0EhWN9ZiQ-2">
          <mxGeometry x="11" y="30" width="204" height="130" as="geometry" />
        </mxCell>
        <mxCell id="zPCV15eDfuU0EhWN9ZiQ-4" value="Usuario" style="rounded=0;whiteSpace=wrap;html=1;align=left;fillColor=#f5f5f5;fontColor=#333333;strokeColor=#666666;" vertex="1" parent="zPCV15eDfuU0EhWN9ZiQ-2">
          <mxGeometry x="21" y="40" width="184" height="30" as="geometry" />
        </mxCell>
        <mxCell id="zPCV15eDfuU0EhWN9ZiQ-5" value="Contraseña" style="rounded=0;whiteSpace=wrap;html=1;align=left;fillColor=#f5f5f5;fontColor=#333333;strokeColor=#666666;" vertex="1" parent="zPCV15eDfuU0EhWN9ZiQ-2">
          <mxGeometry x="21" y="80" width="184" height="30" as="geometry" />
        </mxCell>
        <mxCell id="zPCV15eDfuU0EhWN9ZiQ-6" value="Iniciar sesión" style="rounded=0;whiteSpace=wrap;html=1;align=center;fillColor=#fff2cc;strokeColor=#d6b656;" vertex="1" parent="zPCV15eDfuU0EhWN9ZiQ-2">
          <mxGeometry x="115" y="120" width="90" height="30" as="geometry" />
        </mxCell>
        <mxCell id="zPCV15eDfuU0EhWN9ZiQ-7" value="PASO 5" style="swimlane;whiteSpace=wrap;html=1;fillColor=#e1d5e7;strokeColor=#9673a6;" vertex="1" parent="zPCV15eDfuU0EhWN9ZiQ-1">
          <mxGeometry x="12" y="210" width="226" height="170" as="geometry" />
        </mxCell>
        <mxCell id="zPCV15eDfuU0EhWN9ZiQ-8" value="Credenciales correctas&lt;div&gt;&lt;br&gt;&lt;div&gt;&lt;b&gt;&lt;font style=&quot;font-size: 15px;&quot;&gt;Sesión iniciada&lt;/font&gt;&lt;/b&gt;&lt;/div&gt;&lt;/div&gt;" style="rounded=0;whiteSpace=wrap;html=1;fillColor=#dae8fc;strokeColor=#6c8ebf;" vertex="1" parent="zPCV15eDfuU0EhWN9ZiQ-7">
          <mxGeometry x="11" y="30" width="204" height="130" as="geometry" />
        </mxCell>
        <mxCell id="k0skZRUFcCBVYAi46Tha-1" value="Backend" style="swimlane;whiteSpace=wrap;html=1;fillColor=#d5e8d4;strokeColor=#82b366;" vertex="1" parent="1">
          <mxGeometry x="400" y="70" width="560" height="410" as="geometry" />
        </mxCell>
        <mxCell id="k0skZRUFcCBVYAi46Tha-2" value="Capa lógica" style="swimlane;whiteSpace=wrap;html=1;fillColor=#dae8fc;strokeColor=#6c8ebf;" vertex="1" parent="k0skZRUFcCBVYAi46Tha-1">
          <mxGeometry x="14" y="30" width="236" height="350" as="geometry" />
        </mxCell>
        <mxCell id="k0skZRUFcCBVYAi46Tha-3" value="PASO 2" style="swimlane;whiteSpace=wrap;html=1;fillColor=#e1d5e7;strokeColor=#9673a6;" vertex="1" parent="k0skZRUFcCBVYAi46Tha-2">
          <mxGeometry x="11.5" y="30" width="209" height="130" as="geometry" />
        </mxCell>
        <mxCell id="k0skZRUFcCBVYAi46Tha-4" value="Transformación de los datos enviados al formato correcto y envío a la base de datos a través de una &lt;i&gt;query SQL.&lt;/i&gt;" style="rounded=0;whiteSpace=wrap;html=1;" vertex="1" parent="k0skZRUFcCBVYAi46Tha-3">
          <mxGeometry x="10" y="30" width="190" height="90" as="geometry" />
        </mxCell>
        <mxCell id="k0skZRUFcCBVYAi46Tha-5" value="PASO 4" style="swimlane;whiteSpace=wrap;html=1;fillColor=#e1d5e7;strokeColor=#9673a6;" vertex="1" parent="k0skZRUFcCBVYAi46Tha-2">
          <mxGeometry x="11.5" y="210" width="213" height="130" as="geometry" />
        </mxCell>
        <mxCell id="k0skZRUFcCBVYAi46Tha-6" value="Autentificación de los datos y envío de una respuesta de credenciales correctas." style="rounded=0;whiteSpace=wrap;html=1;" vertex="1" parent="k0skZRUFcCBVYAi46Tha-5">
          <mxGeometry x="10" y="30" width="190" height="90" as="geometry" />
        </mxCell>
        <mxCell id="k0skZRUFcCBVYAi46Tha-25" style="edgeStyle=orthogonalEdgeStyle;rounded=0;orthogonalLoop=1;jettySize=auto;html=1;" edge="1" parent="k0skZRUFcCBVYAi46Tha-1" source="k0skZRUFcCBVYAi46Tha-7">
          <mxGeometry relative="1" as="geometry">
            <mxPoint x="390" y="125" as="targetPoint" />
          </mxGeometry>
        </mxCell>
        <mxCell id="k0skZRUFcCBVYAi46Tha-7" value="Las credenciales&lt;div&gt;son correctas?&lt;/div&gt;" style="rhombus;whiteSpace=wrap;html=1;fillColor=#bac8d3;strokeColor=#23445d;" vertex="1" parent="k0skZRUFcCBVYAi46Tha-1">
          <mxGeometry x="270" y="75" width="100" height="100" as="geometry" />
        </mxCell>
        <mxCell id="k0skZRUFcCBVYAi46Tha-27" style="edgeStyle=orthogonalEdgeStyle;rounded=0;orthogonalLoop=1;jettySize=auto;html=1;exitX=1;exitY=0.5;exitDx=0;exitDy=0;endArrow=none;startFill=1;startArrow=classic;" edge="1" parent="k0skZRUFcCBVYAi46Tha-1" source="k0skZRUFcCBVYAi46Tha-12">
          <mxGeometry relative="1" as="geometry">
            <mxPoint x="390" y="305" as="targetPoint" />
          </mxGeometry>
        </mxCell>
        <mxCell id="k0skZRUFcCBVYAi46Tha-12" value="Credenciales&lt;div&gt;correctas&lt;/div&gt;" style="shape=parallelogram;perimeter=parallelogramPerimeter;whiteSpace=wrap;html=1;fixedSize=1;fillColor=#bac8d3;strokeColor=#23445d;" vertex="1" parent="k0skZRUFcCBVYAi46Tha-1">
          <mxGeometry x="260" y="275" width="120" height="60" as="geometry" />
        </mxCell>
        <mxCell id="k0skZRUFcCBVYAi46Tha-22" style="edgeStyle=orthogonalEdgeStyle;rounded=0;orthogonalLoop=1;jettySize=auto;html=1;entryX=0;entryY=0.5;entryDx=0;entryDy=0;" edge="1" parent="k0skZRUFcCBVYAi46Tha-1" source="k0skZRUFcCBVYAi46Tha-3" target="k0skZRUFcCBVYAi46Tha-7">
          <mxGeometry relative="1" as="geometry" />
        </mxCell>
        <mxCell id="k0skZRUFcCBVYAi46Tha-23" style="edgeStyle=orthogonalEdgeStyle;rounded=0;orthogonalLoop=1;jettySize=auto;html=1;startArrow=classic;startFill=1;endArrow=none;" edge="1" parent="k0skZRUFcCBVYAi46Tha-1" source="k0skZRUFcCBVYAi46Tha-5" target="k0skZRUFcCBVYAi46Tha-12">
          <mxGeometry relative="1" as="geometry" />
        </mxCell>
        <mxCell id="k0skZRUFcCBVYAi46Tha-19" style="edgeStyle=orthogonalEdgeStyle;rounded=0;orthogonalLoop=1;jettySize=auto;html=1;entryX=0;entryY=0.5;entryDx=0;entryDy=0;" edge="1" parent="1" source="zPCV15eDfuU0EhWN9ZiQ-2" target="k0skZRUFcCBVYAi46Tha-3">
          <mxGeometry relative="1" as="geometry" />
        </mxCell>
        <mxCell id="k0skZRUFcCBVYAi46Tha-20" style="edgeStyle=orthogonalEdgeStyle;rounded=0;orthogonalLoop=1;jettySize=auto;html=1;exitX=1;exitY=0.5;exitDx=0;exitDy=0;entryX=0;entryY=0.5;entryDx=0;entryDy=0;endArrow=none;startFill=1;startArrow=classic;" edge="1" parent="1" source="zPCV15eDfuU0EhWN9ZiQ-7" target="k0skZRUFcCBVYAi46Tha-5">
          <mxGeometry relative="1" as="geometry" />
        </mxCell>
        <mxCell id="k0skZRUFcCBVYAi46Tha-8" value="Capa de datos" style="swimlane;whiteSpace=wrap;html=1;fillColor=#fff2cc;strokeColor=#d6b656;" vertex="1" parent="1">
          <mxGeometry x="790" y="100" width="160" height="350" as="geometry" />
        </mxCell>
        <mxCell id="k0skZRUFcCBVYAi46Tha-9" value="PASO 3" style="swimlane;whiteSpace=wrap;html=1;fillColor=#e1d5e7;strokeColor=#9673a6;" vertex="1" parent="k0skZRUFcCBVYAi46Tha-8">
          <mxGeometry x="12.75" y="30" width="134.5" height="310" as="geometry" />
        </mxCell>
        <mxCell id="k0skZRUFcCBVYAi46Tha-10" value="Comprovación de que las credenciales facilitadas por el cliente sean coincidentes con las de la base de datos." style="rounded=0;whiteSpace=wrap;html=1;" vertex="1" parent="k0skZRUFcCBVYAi46Tha-9">
          <mxGeometry x="12.25" y="30" width="110" height="110" as="geometry" />
        </mxCell>
        <mxCell id="k0skZRUFcCBVYAi46Tha-11" value="" style="html=1;verticalLabelPosition=bottom;align=center;labelBackgroundColor=#ffffff;verticalAlign=top;strokeWidth=2;strokeColor=#0080F0;shadow=0;dashed=0;shape=mxgraph.ios7.icons.data;" vertex="1" parent="k0skZRUFcCBVYAi46Tha-9">
          <mxGeometry x="32.25" y="210" width="70" height="70" as="geometry" />
        </mxCell>
      </root>
    </mxGraphModel>
  </diagram>
</mxfile>
